<svg xmlns="http://www.w3.org/2000/svg" xmlns:xlink="http://www.w3.org/1999/xlink" width="489.251" height="385" viewBox="0 0 489.251 385">
  <defs>
    <clipPath id="clip-path">
      <rect id="Rectangle_4" data-name="Rectangle 4" width="478" height="385" transform="translate(0.477)"/>
    </clipPath>
    <clipPath id="clip-path-2">
      <rect id="Rectangle_3" data-name="Rectangle 3" width="478" height="385" transform="translate(0.477)" fill="#4F4538"/>
    </clipPath>
  </defs>
  <g id="Group_4" data-name="Group 4" transform="translate(-244.974 -102.751)">
    <g id="Group_3" data-name="Group 3" transform="translate(255.748 102.751)" clip-path="url(#clip-path)">
      <g id="Group_2" data-name="Group 2" transform="translate(0 0)" clip-path="url(#clip-path-2)">
        <g id="Group_1" data-name="Group 1" clip-path="url(#clip-path-2)">
          <path id="Path_1" data-name="Path 1" d="M684.05,180.152a112.428,112.428,0,0,1,46.106-20.577c4.38-.855,9.591-1.192,12.625,2.085,3.783,4.089,1.552,10.663-1.087,15.566a176.863,176.863,0,0,1-22.958,33c9.73,5.425,20.848,13.255,20.044,24.368-.7,9.664-11.012,16.318-20.7,16.5s-18.758-4.368-27.375-8.8l-10.014,11.261a157.057,157.057,0,0,1,65.356,30.706c1.774-12.491,5.128-25.1,12.557-35.3s19.553-17.62,32.142-16.766,24.51,11.66,24.174,24.269c12.137-9.285,28.723-17.637,41.951-9.993,10.716,6.2,13.9,20.553,12.048,32.794-4.218,27.845-27.255,48.453-48.826,66.558l-37.345,31.344c-2.458,2.065-5.712,4.255-8.619,2.891-2.264-1.063-3.111-3.788-3.723-6.214l-11.491-45.62c-2.029,19.717-1.63,40.2,5.792,58.58s22.886,34.365,42.319,38.275,41.934-7.038,47.389-26.092c1.3-4.537,9.121-2.867,10.34,1.694s-1.743,9.124-4.838,12.686c-11.658,13.43-28.362,23.338-46.146,23.416-25.474.115-47.542-20.009-57.534-43.441s-10.359-49.693-10.233-75.168c.084-16.707-11.694-31.661-26.113-40.109s-31.233-11.6-47.668-14.616c29.763,37.146,40.244,88.946,27.262,134.741s-49.093,84.386-93.924,100.385-97.214,8.981-136.255-18.252c-15.486,16.085-30.991,32.192-45.189,49.425-4.52,5.486-9.234,11.33-15.884,13.849s-15.757.048-17.7-6.791c-1.8-6.326,3.045-12.434,7.536-17.233l51.894-55.5c-35.325-35.025-51.36-88.4-41.185-137.1s46.238-91.188,92.631-109.141,101.669-10.808,141.972,18.353a29.177,29.177,0,0,1,2.038-28.075c-37.148-29.482-89.875-38.023-134.429-21.778-4.421,1.613-11.355,2.052-11.868-2.628-.354-3.208,3.163-5.337,6.171-6.507,44.74-17.4,97.93-11.144,137.415,16.153,9.845,6.8,22.655,7.011,34.625,6.968,10.432-.035,23.013-1.342,27.605-10.7a89.192,89.192,0,0,1-20-.252c-1.479-.184-3.1-.49-4.018-1.664C679.053,185.3,681.618,181.989,684.05,180.152Zm133.826,91.577a40.716,40.716,0,0,1-13.428,31.241c-2.41,2.146-5.62,4.1-8.7,3.122-4.048-1.283-5.023-6.569-4.649-10.8a42.933,42.933,0,0,1,8.887-22.509c2.7-3.45,6.077-6.791,6.63-11.136a14.276,14.276,0,0,0-2.18-8.658c-4.15-7.323-12.9-12.707-20.981-10.345a22.426,22.426,0,0,0-7.706,4.432,52.19,52.19,0,0,0-17.723,49.915c2.062,9.968,7.028,19.051,10.735,28.532,5.232,13.38,7.956,27.582,10.66,41.692,9.564-11.446,21.636-20.473,33.447-29.584s23.628-18.56,32.443-30.592,14.431-27.111,12.233-41.865a15.519,15.519,0,0,0-2.3-6.716c-2.214-3.163-6.251-4.681-10.109-4.641s-7.572,1.449-11.03,3.163a61,61,0,0,0-11.994,7.844C819.969,266.623,817.788,268.932,817.876,271.729ZM561,392.5c48.528-14.2,94.446-40.413,126.49-79.518a12.612,12.612,0,0,0,2.6-4.256,6.612,6.612,0,0,0-1.839-6.592c-37.141,33.943-80.383,62.295-128.73,76.251s-102.153,12.55-147.107-10.047c-2.018,4.1-.67,9.231,2.2,12.775s7.025,5.8,11.154,7.747c41.7,19.678,90.974,16.583,135.226,3.632ZM439.9,418.791c29.68,11.817,63.173,10.118,94.325,3.041,59.045-13.408,113.253-45.553,155.573-88.855,2.36-2.414,4.741-4.95,5.943-8.107s.937-7.106-1.512-9.427c-38.995,46.9-95.767,77.589-155.617,89.334-41.231,8.086-86.112,7.04-122.586-13.815-.591,6.539,2.531,13.022,7.156,17.685S433.8,416.364,439.9,418.791Zm-18.1-53.038c43.443,19.191,93.95,19.11,139.39,5.3s86.141-40.582,121.254-72.566a6.363,6.363,0,0,0-.685-9.524c-36.184,32.379-79.648,57.048-126.736,68.881s-97.806,10.5-143.346-6.335c-1.366,2.964-.236,6.6,1.938,9.035S418.814,364.438,421.8,365.753Zm107.025-9.393q8.806-1.672,17.612-3.34c-14.464-17.387-28.022-35.605-39.194-55.266s-19.95-40.815-24.479-62.975a1.563,1.563,0,0,0-.5-1.028,1.579,1.579,0,0,0-1.509.121,23.1,23.1,0,0,0-6.09,3.51,7.807,7.807,0,0,0-2.875,6.18c1.589,20.788,8.266,40.972,17.637,59.6s21.408,35.788,34.171,52.272C524.742,356.912,526.988,356.707,528.822,356.36Zm20.992-44.295c-.473.959.209,2.062.856,2.913q6.39,8.387,12.783,16.769c17.2-33.342,30.236-70.1,28.309-107.564-.115-2.28-.422-4.821-2.194-6.26a8.431,8.431,0,0,0-3.94-1.419q-5.343-.958-10.682-1.922a1.753,1.753,0,0,0-.891-.006c-.693.247-.781,1.173-.755,1.909,1.217,33.125-8.836,65.844-23.484,95.582Zm5.516,38.8,13.4-3.855a344.342,344.342,0,0,1-53.407-80.842c-6.147-12.968-11.473-26.31-16.723-39.667-.48-1.221-2.3-.8-3.458-.176q-2.726,1.482-5.45,2.967a2.318,2.318,0,0,0-1.52,2.905,2.6,2.6,0,0,0,.1.265c8.873,43.975,34.261,82.906,63.153,117.227a2.936,2.936,0,0,0,3.908,1.181Zm76.593,128.371c4-1.337,6.9-4.832,10.721-6.623C609.793,465.2,580.82,446,554.82,424.592c-1-.828-2.492-.537-3.747-.2q-8.5,2.25-16.995,4.5c16.595,16.39,34.564,31.788,55.4,42.262a77.344,77.344,0,0,0,20.186,7.313,105.925,105.925,0,0,0,14.1,1.369c2.743.14,5.559.269,8.161-.6Zm-130.811-120.6a4.819,4.819,0,0,0,2.411.228q7.206-.564,14.409-1.122c-12.93-16.638-24.922-34.107-34.25-53.007s-15.961-39.279-17.816-60.27q-5.171,4.477-10.34,8.948a5.8,5.8,0,0,0-1.777,2.121,5.711,5.711,0,0,0-.086,2.95c5.432,36.122,24.61,68.659,45.746,98.453A4.77,4.77,0,0,0,501.112,358.637Zm33.34-68.7L545.12,306.93c13.664-28.585,23.2-59.893,21.689-91.538a1.49,1.49,0,0,0-1.767-1.77l-11.256-.3c-1.054-.03-2.461.231-2.561,1.283a233.358,233.358,0,0,1-18.01,70.317c-.71,1.65.281,3.5,1.237,5.021Zm71.36,5.442a20.834,20.834,0,0,0,1.683-5,213.271,213.271,0,0,0,5.752-58.967c-.086-2.058-.258-4.265-1.549-5.871-1.151-1.438-2.988-2.119-4.728-2.733l-7.86-2.773c-.473-.167-1.24-.129-1.2.372,1.672,20.111-1.055,40.44-6.523,59.867s-13.637,38.005-22.913,55.926L602.285,299.9a22.087,22.087,0,0,0,3.527-4.519ZM549.884,451.4q-9.6-8.085-18.535-16.906c-.667-.655-1.761-.006-2.443.631a281.705,281.705,0,0,1-55.682,40.346c4.044,3.382,8.435,6.917,13.688,7.38,3.3.293,6.569-.677,9.707-1.731A165.894,165.894,0,0,0,549.884,451.4Zm108.52,7.231a241.96,241.96,0,0,1-79.347-41.755c-1.624-1.288-3.987-.614-5.924.115q-6.2,2.332-12.4,4.665a257.772,257.772,0,0,0,35.718,25.556c15.362,9.118,31.884,16.7,49.46,19.883a5.949,5.949,0,0,0,2.485.083,6.069,6.069,0,0,0,2.5-1.635Q654.655,462.085,658.4,458.634Zm5.876-6.667q4.047-4.566,7.632-9.519A218.5,218.5,0,0,1,603.158,405.8c-1.164-.922-2.859-.325-4.2.3q-7.542,3.516-15.08,7.025a233.517,233.517,0,0,0,76.466,39.884A2.972,2.972,0,0,0,664.28,451.967ZM440.295,277.41a312.479,312.479,0,0,0,36.39,78.759,6.653,6.653,0,0,0,2.171,2.386,6.73,6.73,0,0,0,3.27.559l11.55.026c-20.868-29.552-39.492-61.839-45.492-97.517a33.233,33.233,0,0,0-6.287,6.866A11.2,11.2,0,0,0,440.295,277.41Zm257.322,56.543c-5.347,3.434-6.563,10.566-7.586,16.836-3.532,21.633-10.64,42.547-19.1,62.768-.453,1.082.9,2,2,2.407l10.845,4.007a1.287,1.287,0,0,0,1.79-.327,1.3,1.3,0,0,0,.2-.478,145.479,145.479,0,0,0,11.852-85.215ZM516.872,253.172c-.546,1.63.236,3.371,1,4.907q5.3,10.658,10.587,21.314a225.362,225.362,0,0,0,16.174-63.454c.086-.824.078-1.834-.637-2.254l-14.425,1.9c-1.406.192-3.132.655-3.4,2.049A274.635,274.635,0,0,1,516.872,253.172ZM618.944,395.755q-5.524,3.089-11.049,6.171a211.265,211.265,0,0,0,64.77,34.631,2.772,2.772,0,0,0,4.14-1.264q2.44-4.064,4.883-8.126c.321-.537.539-1.419-.051-1.63a248.949,248.949,0,0,1-58.594-30.358C621.849,394.339,620.219,395.043,618.944,395.755Zm-65.265,60.91a172.2,172.2,0,0,1-58.892,31.788c12.891,3.589,26.83,1.834,39.406-2.74s23.99-11.837,35.013-19.421l-11.713-8.827C556.369,456.622,554.763,455.765,553.679,456.665Zm19.9,14.05a128.429,128.429,0,0,1-48.616,24.4c-1.619.413-3.243.8-4.869,1.181l-2.14.5c12.719,3.892,26.521,3.629,39.4.288s24.852-9.664,35.561-17.551q-7.928-4.228-15.859-8.451c-1.088-.582-2.505-1.143-3.469-.367Zm95.891-109.69a6.7,6.7,0,0,0-2.289,3.036,301.155,301.155,0,0,1-14.308,41.4c-.309.721.529,1.385,1.234,1.725l8.531,4.171a2,2,0,0,0,1.877.223,1.968,1.968,0,0,0,.66-.953,307.459,307.459,0,0,0,19.14-62.942Q676.9,354.358,669.468,361.024ZM634.919,238.287c-1.63-2.529-4.363-4.095-7.015-5.514q-4.128-2.21-8.332-4.268a217.838,217.838,0,0,1-4.5,57.58q9.652-10.409,19.3-20.818a9.626,9.626,0,0,0,2.132-2.988,9.528,9.528,0,0,0,.439-3.2q.114-5.655-.006-11.31C636.872,244.5,636.687,241.045,634.919,238.287ZM451.4,322.672q-2.79-6.015-5.583-12.034c-8.3,8.662-16.766,17.465-27.29,23.217a18.92,18.92,0,0,0-5.116,3.444c-1.393,1.525-2.161,3.843-1.246,5.7.88,1.78,2.947,2.569,4.828,3.2l9.261,3.122a3.542,3.542,0,0,0,1.9.269,3.5,3.5,0,0,0,1.527-1,217.48,217.48,0,0,0,20.634-22.461C451.116,325.129,451.945,323.83,451.4,322.672Zm-8.924-19.127a3.947,3.947,0,0,0-.3-1.756q-3.813-11.427-7.629-22.857a144.443,144.443,0,0,0-20.433,50.188A108.007,108.007,0,0,0,441.472,305.4,3.869,3.869,0,0,0,442.481,303.545Zm5.795,146.208a165.607,165.607,0,0,0,28.469-16.18,117.331,117.331,0,0,1-30.682-5.656c-4.783-1.562-9.747,1.428-13.892,4.285a150.784,150.784,0,0,0,11.47,16.271,3.148,3.148,0,0,0,4.635,1.283Zm278.719-219.61a44.487,44.487,0,0,0-14.616-10.8,1.3,1.3,0,0,0-1.817.266,1.207,1.207,0,0,0-.089.137q-5.818,6.532-11.573,13.11a1.4,1.4,0,0,0-.445.841c-.008.523.531.862,1,1.1,4.346,2.137,8.764,4.3,13.537,5.133s10.029.161,13.789-2.894a4.754,4.754,0,0,0,2.008-3.186C728.871,232.441,727.939,231.2,726.994,230.143Zm-87.6,153.172c-3.471,2.237-5,6.451-6.305,10.364a1.494,1.494,0,0,0-.1.959,1.478,1.478,0,0,0,.7.679l11.226,6.859a1.543,1.543,0,0,0,2.719-.767,330.48,330.48,0,0,0,11.407-32.1q-9.487,7.459-19.647,14.007ZM455.408,331.064c-.48-.288-1.031.2-1.372.633a187.075,187.075,0,0,1-18.476,20.225,134.993,134.993,0,0,0,16.429,3.8,2.9,2.9,0,0,0,3.528-1.3l6.555-8.244a1.706,1.706,0,0,0,.268-2.378q-3.277-6.129-6.553-12.259A1.127,1.127,0,0,0,455.408,331.064ZM597.924,483.337a101.11,101.11,0,0,1-31.3,17.772c9.43-.379,18.7-2.492,27.823-4.929,7.956-2.123,16.3-4.786,21.663-11.036a32.158,32.158,0,0,1-10.458-1.608C603.085,482.693,600,481.6,597.924,483.337Zm55.131-182.244,2.013-20.439q-5.963,6.14-11.929,12.28a11.207,11.207,0,0,0-3.834,7.729q-1.342,7.4-2.683,14.791,6.844-4.517,13.558-9.234a5.419,5.419,0,0,0,2.875-5.125Zm18.6-12.252a3.791,3.791,0,0,0,.894-2.875q.121-4.848.245-9.691c.08-3.27-2.346-5.994-4.62-8.345a.83.83,0,0,0-1.463-.008l-2.843,2.964a5.992,5.992,0,0,0-2.086,4.869q-.9,11.58-1.807,23.164,5.838-5.035,11.678-10.077ZM657.4,238.661c.242.287.558.6.929.533a1.081,1.081,0,0,0,.55-.384q4.889-5.247,9.777-10.5c.384-.412.76-1.109.322-1.463q-6.806-5.509-13.6-11.014a1.669,1.669,0,0,0-1.323-.528,1.556,1.556,0,0,0-.882.832,16.153,16.153,0,0,0-1.463,11.83A26.725,26.725,0,0,0,657.4,238.661ZM505.326,222.283a1.15,1.15,0,0,0-.784,1.839q3.712,10.94,8.021,21.67,3.982-13.606,6.979-27.474c-.263-.343-.794-.258-1.208-.14Q511.78,220.063,505.326,222.283Zm123.937,95.78q1.511-6.8,3.022-13.591-12.74,13.738-25.477,27.477,10.3-4.84,20.1-10.639a3.861,3.861,0,0,0,2.351-3.246ZM516.224,431.853a8.947,8.947,0,0,0-2.327.708,9.676,9.676,0,0,0-2.7,2.365q-10.111,11.334-20.785,22.142c.309.3.827.06,1.183-.192a358.445,358.445,0,0,0,32.664-26.1A62.317,62.317,0,0,0,516.224,431.853ZM799.667,297.308a2.47,2.47,0,0,0,1.476-.913,39.09,39.09,0,0,0,5.493-8.162c1.75-3.141,3.522-6.344,4.265-9.86a3.877,3.877,0,0,0,.03-2,1.546,1.546,0,0,0-1.487-1.136,2.282,2.282,0,0,0-1.4.979,54.966,54.966,0,0,0-9.7,17.062,4.905,4.905,0,0,0-.389,2.475A1.788,1.788,0,0,0,799.667,297.308ZM675.932,218.732a1.054,1.054,0,0,0,1.747-.211l7.747-8.085a2.147,2.147,0,0,0-1.388-.516c-5.887-.7-11.851-1.409-17.717-.561a1.762,1.762,0,0,0-1.337.634Zm-32.712,36.481c.3.169.64-.1.87-.349q2.606-2.83,5.215-5.655c.451-.491-.1-1.246-.617-1.667l-4.026-3.3c-.372-.306-.958-.6-1.28-.249a.989.989,0,0,0-.14.767A54.164,54.164,0,0,1,643.221,255.213Zm-180,194.728c-.239-.18-.576-.051-.841.083q-5.545,2.787-11.084,5.575c-.288.145-.617.363-.6.682a.835.835,0,0,0,.287.489l1.877,1.964a1.078,1.078,0,0,0,1.9-.04Zm-1.61-92.632q3.761.423,7.521.842.9.1,1.8.2a80.937,80.937,0,0,0-4.427-7.057A54.782,54.782,0,0,0,461.615,357.309Zm-36.277,61.2c-.4.1-.3.707-.1,1.074l2.129,4.045a2.876,2.876,0,0,0,.754,1.028,2.654,2.654,0,0,0,1.868.306,14.646,14.646,0,0,0,4.805-1.369A55.4,55.4,0,0,1,425.338,418.511Z" transform="translate(-390.726 -159.176)" fill="#4F4538" fill-rule="evenodd"/>
        </g>
      </g>
    </g>
    <path id="Path_2" data-name="Path 2" d="M416.682,475.381a6.365,6.365,0,0,1-.393-.6,2.245,2.245,0,0,1-.19-.417.477.477,0,0,1-.02-.277.341.341,0,0,1,.134-.179l5.022-3.624-7.505.162a.838.838,0,0,1-.308-.013.827.827,0,0,1-.294-.149,2.1,2.1,0,0,1-.333-.327q-.183-.216-.439-.571a6.56,6.56,0,0,1-.407-.622,2.158,2.158,0,0,1-.2-.435.506.506,0,0,1-.018-.284.325.325,0,0,1,.125-.174.871.871,0,0,1,.378-.148c.149-.025.4-.046.743-.065l6.573.178,2.788-7.375a5.086,5.086,0,0,1,.322-.6.83.83,0,0,1,.166-.183.4.4,0,0,1,.214-.078.453.453,0,0,1,.267.1,2.272,2.272,0,0,1,.357.331,7.232,7.232,0,0,1,.474.6,6.891,6.891,0,0,1,.57.885,1.023,1.023,0,0,1,.132.472.794.794,0,0,1-.09.336l-3.026,7.6,5.6-4.038a.346.346,0,0,1,.212-.07.5.5,0,0,1,.262.1,2.056,2.056,0,0,1,.34.309,7.7,7.7,0,0,1,.838,1.162,2.11,2.11,0,0,1,.189.425.543.543,0,0,1,.018.285.332.332,0,0,1-.13.184L417.942,476.3a.329.329,0,0,1-.216.066.515.515,0,0,1-.26-.11,2.344,2.344,0,0,1-.339-.318A6.165,6.165,0,0,1,416.682,475.381Z" transform="translate(-135.86 -68.715)" fill="#4F4538" fill-rule="evenodd"/>
    <text id="K" transform="translate(275.861 404.211)" fill="rgba(0,0,0,0)" font-size="15" font-family="ArialMT, Arial"><tspan x="0" y="0">K</tspan></text>
    <path id="Path_3" data-name="Path 3" d="M406.586,456.238a3.681,3.681,0,0,0,1.261,1.375,3.347,3.347,0,0,0,1.538.478,4.528,4.528,0,0,0,1.705-.246,9.727,9.727,0,0,0,1.773-.8,11.5,11.5,0,0,0,1.768-1.221,4.6,4.6,0,0,0,1.107-1.335,2.783,2.783,0,0,0,.321-1.506,4.073,4.073,0,0,0-.594-1.747,3.717,3.717,0,0,0-1.256-1.377,3.261,3.261,0,0,0-1.543-.476,4.644,4.644,0,0,0-1.724.258,10.085,10.085,0,0,0-1.8.82,11.13,11.13,0,0,0-1.719,1.194,4.489,4.489,0,0,0-1.09,1.331,2.923,2.923,0,0,0-.323,1.513A3.933,3.933,0,0,0,406.586,456.238Zm-2.156,1.12a8.877,8.877,0,0,1-1.071-2.748,5.11,5.11,0,0,1,.118-2.5,5.862,5.862,0,0,1,1.356-2.256,11.034,11.034,0,0,1,2.626-2.005,10.732,10.732,0,0,1,3.032-1.221,6.523,6.523,0,0,1,2.766-.046,5.757,5.757,0,0,1,2.409,1.151,8.135,8.135,0,0,1,1.961,2.367,8.949,8.949,0,0,1,1.089,2.79,5.132,5.132,0,0,1-.126,2.5,5.793,5.793,0,0,1-1.379,2.249,11.644,11.644,0,0,1-2.676,2.022,10.45,10.45,0,0,1-2.978,1.19,6.485,6.485,0,0,1-2.747.035,5.855,5.855,0,0,1-2.409-1.151A8.067,8.067,0,0,1,404.43,457.358Z" transform="translate(-135.514 -68.177)" fill="#4F4538" fill-rule="evenodd"/>
    <text id="O" transform="translate(267.744 388.589)" fill="rgba(0,0,0,0)" font-size="12" font-family="ArialMT, Arial"><tspan x="0" y="0">O</tspan></text>
    <path id="Path_4" data-name="Path 4" d="M398.554,440.72l3.778-1.654-.6-1.38a3.636,3.636,0,0,0-.581-.949,2.191,2.191,0,0,0-.707-.549,1.733,1.733,0,0,0-.791-.169,2.231,2.231,0,0,0-.846.2,2.164,2.164,0,0,0-.981.786,1.775,1.775,0,0,0-.21,1.258,4.232,4.232,0,0,0,.123.5,7.166,7.166,0,0,0,.287.739Zm-1.236,2.811-1.51-3.449q-.23-.525-.358-.875c-.085-.232-.159-.446-.22-.64a6.167,6.167,0,0,1-.242-1.618,3.774,3.774,0,0,1,.248-1.409,3.292,3.292,0,0,1,.761-1.149,4.252,4.252,0,0,1,1.3-.853,4.505,4.505,0,0,1,1.295-.364,3.414,3.414,0,0,1,1.2.068,3.584,3.584,0,0,1,1.108.485,4.8,4.8,0,0,1,1,.876,3.354,3.354,0,0,1,.1-.715,3.247,3.247,0,0,1,.284-.713,5.213,5.213,0,0,1,.478-.731,9.3,9.3,0,0,1,.673-.773l2.134-2.271c.216-.218.377-.369.482-.457a1.254,1.254,0,0,1,.261-.176.444.444,0,0,1,.208-.042.363.363,0,0,1,.215.139,2.215,2.215,0,0,1,.271.422q.151.289.376.8.19.431.282.7a1.667,1.667,0,0,1,.1.441.478.478,0,0,1-.052.273.873.873,0,0,1-.166.2l-2.453,2.5q-.41.437-.711.814a3.107,3.107,0,0,0-.453.745,1.822,1.822,0,0,0-.142.755,2.19,2.19,0,0,0,.2.821l.369.844,5.077-2.222a.318.318,0,0,1,.215-.014.517.517,0,0,1,.23.163,2.346,2.346,0,0,1,.263.376,7.613,7.613,0,0,1,.575,1.313,2.371,2.371,0,0,1,.1.453.477.477,0,0,1-.039.274.328.328,0,0,1-.158.143l-12.1,5.3a.9.9,0,0,1-.756.055A.921.921,0,0,1,397.318,443.531Z" transform="translate(-135.176 -67.452)" fill="#4F4538" fill-rule="evenodd"/>
    <text id="R" transform="translate(259.813 371.277)" fill="rgba(0,0,0,0)" font-size="11" font-family="ArialMT, Arial"><tspan x="0" y="0">R</tspan></text>
    <path id="Path_5" data-name="Path 5" d="M390.718,421.025a3.677,3.677,0,0,0,.936,1.614,3.334,3.334,0,0,0,1.4.8,4.514,4.514,0,0,0,1.719.127,9.72,9.72,0,0,0,1.906-.4,11.586,11.586,0,0,0,1.989-.812,4.606,4.606,0,0,0,1.368-1.066,2.786,2.786,0,0,0,.638-1.4,4.074,4.074,0,0,0-.2-1.833,3.713,3.713,0,0,0-.931-1.616,3.262,3.262,0,0,0-1.4-.8,4.624,4.624,0,0,0-1.74-.12,10.017,10.017,0,0,0-1.937.413,11.123,11.123,0,0,0-1.935.8,4.5,4.5,0,0,0-1.35,1.065,2.932,2.932,0,0,0-.642,1.409A3.94,3.94,0,0,0,390.718,421.025Zm-2.347.63a8.88,8.88,0,0,1-.455-2.915,5.141,5.141,0,0,1,.654-2.42,5.9,5.9,0,0,1,1.81-1.911,11.057,11.057,0,0,1,3-1.393,10.752,10.752,0,0,1,3.223-.54,6.521,6.521,0,0,1,2.711.552,5.756,5.756,0,0,1,2.105,1.642,8.119,8.119,0,0,1,1.405,2.734,8.925,8.925,0,0,1,.463,2.958,5.129,5.129,0,0,1-.662,2.417,5.8,5.8,0,0,1-1.831,1.9,11.607,11.607,0,0,1-3.048,1.4,10.4,10.4,0,0,1-3.164.522,6.494,6.494,0,0,1-2.69-.558,5.849,5.849,0,0,1-2.105-1.642A8.085,8.085,0,0,1,388.372,421.655Z" transform="translate(-134.887 -66.788)" fill="#4F4538" fill-rule="evenodd"/>
    <text id="O-2" data-name="O" transform="translate(253.027 356.577)" fill="rgba(0,0,0,0)" font-size="12" font-family="ArialMT, Arial"><tspan x="0" y="0">O</tspan></text>
    <path id="Path_6" data-name="Path 6" d="M382.408,396.908a6.411,6.411,0,0,1-.092-.635,1.3,1.3,0,0,1,.019-.41.461.461,0,0,1,.118-.223.38.38,0,0,1,.188-.093l12.842-2.445a1.116,1.116,0,0,1,.469,0,.972.972,0,0,1,.377.174.926.926,0,0,1,.26.317,1.456,1.456,0,0,1,.14.4l.235,1.236a2.537,2.537,0,0,1,.05.683,1.354,1.354,0,0,1-.182.573,2.5,2.5,0,0,1-.465.563,10.4,10.4,0,0,1-.8.669l-6,4.827q-.538.423-1.167.875t-1.232.829l0,.022q.787-.194,1.572-.367t1.625-.332l7.474-1.423a.341.341,0,0,1,.21.023.446.446,0,0,1,.189.181,1.663,1.663,0,0,1,.171.385,5.144,5.144,0,0,1,.157.645,5.318,5.318,0,0,1,.089.646,1.644,1.644,0,0,1-.018.415.422.422,0,0,1-.111.227.379.379,0,0,1-.188.093l-12.842,2.445a.984.984,0,0,1-.836-.155,1.129,1.129,0,0,1-.4-.7l-.3-1.558a3.041,3.041,0,0,1-.063-.72,1.487,1.487,0,0,1,.14-.558,1.872,1.872,0,0,1,.377-.512,6.054,6.054,0,0,1,.645-.547l4.693-3.777q.429-.332.841-.658t.83-.632q.416-.308.818-.6t.806-.576l0-.011q-.765.181-1.6.357t-1.6.321l-6.7,1.277a.337.337,0,0,1-.212-.029.545.545,0,0,1-.2-.191,1.483,1.483,0,0,1-.171-.391A6.382,6.382,0,0,1,382.408,396.908Z" transform="translate(-134.657 -65.995)" fill="#4F4538" fill-rule="evenodd"/>
    <text id="N" transform="translate(247.652 337.006)" fill="rgba(0,0,0,0)" font-size="11" font-family="ArialMT, Arial"><tspan x="0" y="0">N</tspan></text>
    <path id="Path_7" data-name="Path 7" d="M380.753,385.659a6.16,6.16,0,0,1-.027-.719,2.3,2.3,0,0,1,.051-.456.476.476,0,0,1,.126-.247.348.348,0,0,1,.207-.085l6.171-.524-6.519-3.722a.756.756,0,0,1-.433-.448,2.123,2.123,0,0,1-.118-.453c-.031-.185-.059-.424-.083-.715a6.833,6.833,0,0,1-.029-.742,2.215,2.215,0,0,1,.056-.473.5.5,0,0,1,.131-.253.33.33,0,0,1,.2-.084.887.887,0,0,1,.4.067c.14.057.364.165.67.327l5.545,3.534,6.184-4.89a5.07,5.07,0,0,1,.585-.349.8.8,0,0,1,.237-.07.391.391,0,0,1,.223.042.453.453,0,0,1,.177.223,2.194,2.194,0,0,1,.135.468,7.152,7.152,0,0,1,.1.759,6.827,6.827,0,0,1,.033,1.051,1.032,1.032,0,0,1-.129.474.792.792,0,0,1-.25.242l-6.5,4.962,6.876-.583a.349.349,0,0,1,.219.049.514.514,0,0,1,.172.222,2.051,2.051,0,0,1,.132.44,6.279,6.279,0,0,1,.095.714,6.414,6.414,0,0,1,.027.715,2.088,2.088,0,0,1-.057.461.545.545,0,0,1-.131.253.327.327,0,0,1-.206.091L381.36,387.1a.333.333,0,0,1-.22-.055.518.518,0,0,1-.166-.228,2.441,2.441,0,0,1-.128-.446A6.311,6.311,0,0,1,380.753,385.659Z" transform="translate(-134.567 -65.27)" fill="#4F4538" fill-rule="evenodd"/>
    <text id="K-2" data-name="K" transform="translate(245.53 319.809)" fill="rgba(0,0,0,0)" font-size="11" font-family="ArialMT, Arial"><tspan x="0" y="0">K</tspan></text>
    <path id="Path_8" data-name="Path 8" d="M381.945,363.951a3.684,3.684,0,0,0,.376,1.828,3.34,3.34,0,0,0,1.074,1.2,4.517,4.517,0,0,0,1.589.665,9.728,9.728,0,0,0,1.935.222,11.587,11.587,0,0,0,2.145-.139,4.622,4.622,0,0,0,1.635-.576,2.789,2.789,0,0,0,1.049-1.127,4.094,4.094,0,0,0,.388-1.8,3.716,3.716,0,0,0-.371-1.828,3.258,3.258,0,0,0-1.079-1.2,4.652,4.652,0,0,0-1.612-.665,10.069,10.069,0,0,0-1.968-.223,11.075,11.075,0,0,0-2.088.141,4.489,4.489,0,0,0-1.619.582,2.925,2.925,0,0,0-1.055,1.133A3.953,3.953,0,0,0,381.945,363.951Zm-2.426-.146a8.9,8.9,0,0,1,.493-2.908,5.13,5.13,0,0,1,1.388-2.088,5.883,5.883,0,0,1,2.322-1.238,11.1,11.1,0,0,1,3.284-.371,10.778,10.778,0,0,1,3.228.51,6.527,6.527,0,0,1,2.4,1.382,5.777,5.777,0,0,1,1.476,2.225,8.122,8.122,0,0,1,.465,3.038,8.939,8.939,0,0,1-.5,2.953,5.129,5.129,0,0,1-1.394,2.081,5.8,5.8,0,0,1-2.338,1.222,11.671,11.671,0,0,1-3.335.359,10.461,10.461,0,0,1-3.166-.508,6.486,6.486,0,0,1-2.374-1.383,5.828,5.828,0,0,1-1.476-2.225A8.1,8.1,0,0,1,379.519,363.805Z" transform="translate(-134.543 -64.528)" fill="#4F4538" fill-rule="evenodd"/>
    <text id="O-3" data-name="O" transform="translate(244.974 303.256)" fill="rgba(0,0,0,0)" font-size="12" font-family="ArialMT, Arial"><tspan x="0" y="0">O</tspan></text>
    <path id="Path_9" data-name="Path 9" d="M380.138,348.528q.079-.522.142-.825a1.561,1.561,0,0,1,.147-.45.37.37,0,0,1,.21-.184,1.261,1.261,0,0,1,.341-.04l11.394-.863v-.011l-10.541-4.27a1.308,1.308,0,0,1-.327-.169.476.476,0,0,1-.169-.275,1.677,1.677,0,0,1-.029-.487c.011-.2.042-.471.093-.8.053-.356.1-.638.15-.847a1.605,1.605,0,0,1,.169-.475.511.511,0,0,1,.243-.22,1.17,1.17,0,0,1,.374-.068l11.345-1.065,0-.022-10.6-4.177a1.463,1.463,0,0,1-.293-.135.405.405,0,0,1-.169-.242,1.448,1.448,0,0,1-.033-.459q.016-.294.095-.815.073-.489.142-.757a.647.647,0,0,1,.209-.372.452.452,0,0,1,.378-.052,4.309,4.309,0,0,1,.632.215l12.018,5.187a1.253,1.253,0,0,1,.4.247.714.714,0,0,1,.192.386,2.357,2.357,0,0,1,.021.618c-.018.246-.057.559-.113.937q-.1.634-.181,1.013a2.206,2.206,0,0,1-.2.589.625.625,0,0,1-.293.286,1.349,1.349,0,0,1-.452.091l-9.46.927,0,.022,8.786,3.552a1.33,1.33,0,0,1,.393.219.646.646,0,0,1,.2.354,2,2,0,0,1,.028.607q-.027.377-.12.988-.1.645-.183,1.023a2.212,2.212,0,0,1-.2.589.626.626,0,0,1-.293.286,1.543,1.543,0,0,1-.454.1l-13.04,1.377a3.565,3.565,0,0,1-.644.016.42.42,0,0,1-.331-.18.814.814,0,0,1-.081-.479Q380.053,349.1,380.138,348.528Z" transform="translate(-134.564 -63.433)" fill="#4F4538" fill-rule="evenodd"/>
    <text id="W" transform="translate(245.466 280.97)" fill="rgba(0,0,0,0)" font-size="17" font-family="ArialMT, Arial"><tspan x="0" y="0">W</tspan></text>
    <path id="Path_10" data-name="Path 10" d="M384.937,322.094l1.926-7a.308.308,0,0,1,.1-.159.439.439,0,0,1,.225-.078,1.47,1.47,0,0,1,.369.014,4.427,4.427,0,0,1,.544.12,4.543,4.543,0,0,1,.507.169,1.411,1.411,0,0,1,.319.176.481.481,0,0,1,.154.182.287.287,0,0,1,.012.19l-1.377,5.007,3.424.942,1.165-4.237a.308.308,0,0,1,.109-.162.448.448,0,0,1,.222-.084,1.32,1.32,0,0,1,.358.011,4.385,4.385,0,0,1,.523.115,4.243,4.243,0,0,1,.512.17,1.281,1.281,0,0,1,.309.173.408.408,0,0,1,.141.184.334.334,0,0,1,.006.194l-1.166,4.237,3.955,1.088,1.39-5.05a.3.3,0,0,1,.108-.162.456.456,0,0,1,.227-.083,1.374,1.374,0,0,1,.364.012,4.347,4.347,0,0,1,.533.118,4.3,4.3,0,0,1,.518.172,1.414,1.414,0,0,1,.319.175.456.456,0,0,1,.153.188.308.308,0,0,1,.01.195l-1.937,7.045a.916.916,0,0,1-.377.543.9.9,0,0,1-.755.055L385.6,323.187a.9.9,0,0,1-.621-.433A.923.923,0,0,1,384.937,322.094Z" transform="translate(-134.763 -62.797)" fill="#4F4538" fill-rule="evenodd"/>
    <text id="E" transform="translate(250.135 261.788)" fill="rgba(0,0,0,0)" font-size="11" font-family="ArialMT, Arial"><tspan x="0" y="0">E</tspan></text>
    <path id="Path_11" data-name="Path 11" d="M394.051,293.787a6.927,6.927,0,0,1,.486-.916,7.111,7.111,0,0,1,.583-.8,5.324,5.324,0,0,1,.6-.61,1.87,1.87,0,0,1,.441-.31.816.816,0,0,1,.236-.062.919.919,0,0,1,.218.021,2.094,2.094,0,0,1,.315.095c.123.045.274.107.453.185.2.087.365.166.5.236a1.979,1.979,0,0,1,.317.2.441.441,0,0,1,.151.188.274.274,0,0,1-.017.207.931.931,0,0,1-.3.3c-.168.123-.362.28-.579.471a6.328,6.328,0,0,0-.674.7,4.027,4.027,0,0,0-.593.979,2.674,2.674,0,0,0-.229.82,1.742,1.742,0,0,0,.057.681,1.284,1.284,0,0,0,.315.53,1.641,1.641,0,0,0,.519.356,1.362,1.362,0,0,0,.873.093,2.544,2.544,0,0,0,.86-.4,7.638,7.638,0,0,0,.877-.715q.446-.419.927-.846a11.451,11.451,0,0,1,1.021-.806,4.588,4.588,0,0,1,1.152-.588,3.815,3.815,0,0,1,1.314-.2,3.94,3.94,0,0,1,1.5.363,4.5,4.5,0,0,1,1.673,1.2,4.173,4.173,0,0,1,.859,1.639,5.032,5.032,0,0,1,.114,1.914,7.218,7.218,0,0,1-.569,2.032,7.47,7.47,0,0,1-.673,1.233,7.906,7.906,0,0,1-.73.926,4.934,4.934,0,0,1-.666.611,2.411,2.411,0,0,1-.5.3.85.85,0,0,1-.47.022,3.923,3.923,0,0,1-.751-.261q-.319-.14-.527-.255a1.679,1.679,0,0,1-.32-.22.422.422,0,0,1-.137-.207.324.324,0,0,1,.022-.2.939.939,0,0,1,.348-.333,7.744,7.744,0,0,0,.67-.51,6.757,6.757,0,0,0,.806-.819,5.067,5.067,0,0,0,.748-1.25,3.322,3.322,0,0,0,.269-.937,2.165,2.165,0,0,0-.044-.811,1.553,1.553,0,0,0-.354-.65,1.856,1.856,0,0,0-.647-.456,1.365,1.365,0,0,0-.885-.092,2.667,2.667,0,0,0-.858.391,7.3,7.3,0,0,0-.867.694q-.443.409-.924.835a10.1,10.1,0,0,1-1.016.8,4.61,4.61,0,0,1-1.145.574,3.878,3.878,0,0,1-1.317.191,4.072,4.072,0,0,1-1.539-.378,4.128,4.128,0,0,1-1.529-1.091,3.765,3.765,0,0,1-.786-1.484,4.448,4.448,0,0,1-.095-1.734A6.809,6.809,0,0,1,394.051,293.787Zm-2.882-3.847a3.748,3.748,0,0,1,.384-.709.836.836,0,0,1,.317-.291.2.2,0,0,1,.242.05.85.85,0,0,1,.172.308l1.062,3.187a1.638,1.638,0,0,1,.067.281,1.169,1.169,0,0,1,0,.312,2.022,2.022,0,0,1-.095.4q-.073.226-.213.545a4.582,4.582,0,0,1-.276.548.744.744,0,0,1-.228.256.176.176,0,0,1-.2-.008.65.65,0,0,1-.184-.252l-1.291-2.772a1.67,1.67,0,0,1-.132-.37,1.063,1.063,0,0,1-.01-.372,2.233,2.233,0,0,1,.125-.467C390.97,290.41,391.059,290.194,391.169,289.94Z" transform="translate(-135.003 -61.737)" fill="#4F4538" fill-rule="evenodd"/>
    <text id="Ś" transform="translate(255.767 237.828)" fill="rgba(0,0,0,0)" font-size="12" font-family="ArialMT, Arial"><tspan x="0" y="0">Ś</tspan></text>
    <path id="Path_12" data-name="Path 12" d="M399.209,282.255q.268-.456.438-.714a1.548,1.548,0,0,1,.3-.362.367.367,0,0,1,.263-.093,1.224,1.224,0,0,1,.332.09l10.9,3.435.006-.01-8.2-7.884a1.28,1.28,0,0,1-.241-.278.47.47,0,0,1-.055-.318,1.654,1.654,0,0,1,.154-.463c.086-.184.215-.421.385-.713q.272-.465.454-.73a1.626,1.626,0,0,1,.333-.378.507.507,0,0,1,.308-.113,1.169,1.169,0,0,1,.372.075l10.927,3.231.012-.02-8.288-7.819a1.534,1.534,0,0,1-.221-.234.4.4,0,0,1-.066-.287,1.417,1.417,0,0,1,.14-.439q.124-.266.39-.721.25-.427.414-.65a.648.648,0,0,1,.333-.268.452.452,0,0,1,.369.093,4.19,4.19,0,0,1,.507.435l9.227,9.282a1.279,1.279,0,0,1,.28.379.719.719,0,0,1,.034.431,2.337,2.337,0,0,1-.21.58q-.163.335-.454.829-.324.552-.544.873a2.271,2.271,0,0,1-.408.472.628.628,0,0,1-.378.156,1.356,1.356,0,0,1-.453-.083l-9.127-2.657-.011.019,6.835,6.564a1.314,1.314,0,0,1,.284.349.645.645,0,0,1,.056.4,2.02,2.02,0,0,1-.2.574q-.167.339-.48.872-.329.563-.55.883a2.284,2.284,0,0,1-.408.471.621.621,0,0,1-.378.156,1.523,1.523,0,0,1-.458-.074l-12.617-3.57a3.567,3.567,0,0,1-.605-.224.42.42,0,0,1-.24-.291.8.8,0,0,1,.1-.475Q398.919,282.749,399.209,282.255Z" transform="translate(-135.326 -60.823)" fill="#4F4538" fill-rule="evenodd"/>
    <text id="W-2" data-name="W" transform="translate(263.346 223.031)" fill="rgba(0,0,0,0)" font-size="20" font-family="ArialMT, Arial"><tspan x="0" y="0">W</tspan></text>
    <path id="Path_13" data-name="Path 13" d="M413.964,259.276a6.213,6.213,0,0,1,.455-.558,2.327,2.327,0,0,1,.34-.309.5.5,0,0,1,.261-.107.314.314,0,0,1,.206.06l11.054,8.153a.314.314,0,0,1,.119.179.506.506,0,0,1-.026.281,2.361,2.361,0,0,1-.194.415,7.677,7.677,0,0,1-.851,1.153,2.386,2.386,0,0,1-.342.314.516.516,0,0,1-.261.107.311.311,0,0,1-.206-.061l-11.055-8.152a.313.313,0,0,1-.119-.178.521.521,0,0,1,.029-.286,2.531,2.531,0,0,1,.2-.42A6.147,6.147,0,0,1,413.964,259.276Z" transform="translate(-135.926 -60.485)" fill="#4F4538" fill-rule="evenodd"/>
    <text id="I" transform="translate(277.409 202.556)" fill="rgba(0,0,0,0)" font-size="5" font-family="ArialMT, Arial"><tspan x="0" y="0">I</tspan></text>
    <path id="Path_14" data-name="Path 14" d="M420.262,250.886l4.731-5.507a.3.3,0,0,1,.16-.1.432.432,0,0,1,.237.026,1.507,1.507,0,0,1,.328.171,4.489,4.489,0,0,1,.44.341,4.241,4.241,0,0,1,.386.369,1.4,1.4,0,0,1,.214.294.474.474,0,0,1,.06.23.279.279,0,0,1-.07.176l-3.384,3.939,2.694,2.314,2.864-3.333a.3.3,0,0,1,.168-.1.456.456,0,0,1,.236.018,1.287,1.287,0,0,1,.319.163,4.208,4.208,0,0,1,.423.326,4.377,4.377,0,0,1,.391.373,1.328,1.328,0,0,1,.205.288.406.406,0,0,1,.049.227.333.333,0,0,1-.079.177l-2.863,3.333,3.111,2.674,3.414-3.974a.3.3,0,0,1,.168-.1.451.451,0,0,1,.241.021,1.447,1.447,0,0,1,.323.167,4.63,4.63,0,0,1,.432.334,4.459,4.459,0,0,1,.4.377,1.4,1.4,0,0,1,.214.294.464.464,0,0,1,.057.235.311.311,0,0,1-.074.181l-4.761,5.541a.918.918,0,0,1-.573.331.9.9,0,0,1-.707-.273l-9.616-8.262a.9.9,0,0,1-.377-.657A.921.921,0,0,1,420.262,250.886Z" transform="translate(-136.199 -59.952)" fill="#4F4538" fill-rule="evenodd"/>
    <text id="E-2" data-name="E" transform="translate(283.822 197.434)" fill="rgba(0,0,0,0)" font-size="14" font-family="ArialMT, Arial"><tspan x="0" y="0">E</tspan></text>
    <path id="Path_15" data-name="Path 15" d="M434.558,235.078a6.509,6.509,0,0,1,.91-.74,7.2,7.2,0,0,1,.931-.533,5.233,5.233,0,0,1,.88-.327,2.547,2.547,0,0,1,.638-.108,1.213,1.213,0,0,1,.325.037.935.935,0,0,1,.245.123,2.827,2.827,0,0,1,.294.232q.161.141.38.367c.156.162.284.3.383.428a1.5,1.5,0,0,1,.209.329.529.529,0,0,1,.051.247.267.267,0,0,1-.081.174.774.774,0,0,1-.444.155,6.981,6.981,0,0,0-.786.151,5.413,5.413,0,0,0-1.008.365,4.159,4.159,0,0,0-1.11.8,3.2,3.2,0,0,0-.994,2.861,4.737,4.737,0,0,0,.585,1.648,9.258,9.258,0,0,0,3.016,3.094,4.291,4.291,0,0,0,1.616.587,3.048,3.048,0,0,0,1.477-.17,3.893,3.893,0,0,0,1.326-.868,4.451,4.451,0,0,0,.849-1.079,5.68,5.68,0,0,0,.422-.979q.138-.446.2-.76a.839.839,0,0,1,.17-.414.32.32,0,0,1,.16-.092.33.33,0,0,1,.206.051,1.7,1.7,0,0,1,.31.224q.184.158.466.449.2.2.319.355a2.293,2.293,0,0,1,.2.278.957.957,0,0,1,.1.236,1.192,1.192,0,0,1,.031.291,2.281,2.281,0,0,1-.113.571,5.608,5.608,0,0,1-.352.88,7.578,7.578,0,0,1-.625,1.035,7.712,7.712,0,0,1-.936,1.077,7.5,7.5,0,0,1-2.26,1.544,5.328,5.328,0,0,1-2.428.433,6.148,6.148,0,0,1-2.519-.745,10.267,10.267,0,0,1-2.543-1.982,10.14,10.14,0,0,1-1.935-2.711,6.854,6.854,0,0,1-.686-2.7,5.782,5.782,0,0,1,.5-2.546A7.185,7.185,0,0,1,434.558,235.078Z" transform="translate(-136.707 -59.466)" fill="#4F4538" fill-rule="evenodd"/>
    <text id="C" transform="translate(295.733 183.31)" fill="rgba(0,0,0,0)" font-size="11" font-family="ArialMT, Arial"><tspan x="0" y="0">C</tspan></text>
    <path id="Path_16" data-name="Path 16" d="M442.715,227.716l6.264-5.035a.885.885,0,0,1,.677-.242.934.934,0,0,1,.587.38l.344.429a4.089,4.089,0,0,1,.306.425,2.11,2.11,0,0,1,.189.4,2.743,2.743,0,0,1,.114.457c.027.166.055.367.082.6l1.2,10.356,4.739-3.81a.36.36,0,0,1,.423.007,2.68,2.68,0,0,1,.672.656,4.634,4.634,0,0,1,.323.447,1.557,1.557,0,0,1,.163.338.411.411,0,0,1,.013.242.326.326,0,0,1-.109.16l-6.684,5.372a.9.9,0,0,1-.7.232,1.064,1.064,0,0,1-.66-.435l-.31-.386a2.688,2.688,0,0,1-.235-.338,1.98,1.98,0,0,1-.161-.353,2.543,2.543,0,0,1-.107-.448q-.04-.256-.088-.621l-1.208-10.509-4.363,3.508a.42.42,0,0,1-.218.1.452.452,0,0,1-.246-.055,1.244,1.244,0,0,1-.3-.224,4.3,4.3,0,0,1-.36-.4,4.689,4.689,0,0,1-.334-.46,1.355,1.355,0,0,1-.162-.345.407.407,0,0,1,0-.251A.45.45,0,0,1,442.715,227.716Z" transform="translate(-137.12 -59.018)" fill="#4F4538" fill-rule="evenodd"/>
    <text id="Z" transform="translate(305.431 176.684)" fill="rgba(0,0,0,0)" font-size="16" font-family="ArialMT, Arial"><tspan x="0" y="0">Z</tspan></text>
    <path id="Path_17" data-name="Path 17" d="M457.023,216.5a6.184,6.184,0,0,1,.619-.368,2.436,2.436,0,0,1,.425-.174.475.475,0,0,1,.277-.008.339.339,0,0,1,.174.141l3.414,5.167.146-7.506a.763.763,0,0,1,.187-.595,2.169,2.169,0,0,1,.341-.319q.223-.174.588-.415a6.61,6.61,0,0,1,.638-.381,2.166,2.166,0,0,1,.441-.177.51.51,0,0,1,.286-.007.33.33,0,0,1,.168.131.881.881,0,0,1,.132.385q.027.224.035.744l-.448,6.56,7.254,3.088a5.166,5.166,0,0,1,.586.346.786.786,0,0,1,.176.175.382.382,0,0,1,.069.217.441.441,0,0,1-.11.261,2.188,2.188,0,0,1-.345.343,7.063,7.063,0,0,1-.62.45,6.788,6.788,0,0,1-.907.532,1.046,1.046,0,0,1-.478.113.8.8,0,0,1-.332-.1l-7.471-3.335,3.8,5.758a.353.353,0,0,1,.061.216.5.5,0,0,1-.113.256,2.072,2.072,0,0,1-.323.328,6.291,6.291,0,0,1-.581.425,6.615,6.615,0,0,1-.614.365,2.1,2.1,0,0,1-.433.171.549.549,0,0,1-.286.007.331.331,0,0,1-.178-.138l-7.553-11.431a.331.331,0,0,1-.057-.219.515.515,0,0,1,.121-.255,2.408,2.408,0,0,1,.33-.326A6.279,6.279,0,0,1,457.023,216.5Z" transform="translate(-137.67 -58.585)" fill="#4F4538" fill-rule="evenodd"/>
    <text id="K-3" data-name="K" transform="translate(318.323 167.192)" fill="rgba(0,0,0,0)" font-size="15" font-family="ArialMT, Arial"><tspan x="0" y="0">K</tspan></text>
    <path id="Path_18" data-name="Path 18" d="M472.117,207.2a6.376,6.376,0,0,1,.646-.318,2.381,2.381,0,0,1,.436-.138.513.513,0,0,1,.283.011.316.316,0,0,1,.161.142l6.643,12.022a.314.314,0,0,1,.034.213.51.51,0,0,1-.141.245,2.3,2.3,0,0,1-.35.3,7.636,7.636,0,0,1-1.254.692,2.421,2.421,0,0,1-.442.142.507.507,0,0,1-.282-.012.312.312,0,0,1-.162-.141l-6.643-12.023a.317.317,0,0,1-.034-.212.516.516,0,0,1,.146-.247,2.5,2.5,0,0,1,.355-.3A6.222,6.222,0,0,1,472.117,207.2Z" transform="translate(-138.284 -58.376)" fill="#4F4538" fill-rule="evenodd"/>
    <text id="I-2" data-name="I" transform="translate(332.723 154.95)" fill="rgba(0,0,0,0)" font-size="8" font-family="ArialMT, Arial"><tspan x="0" y="0">I</tspan></text>
    <path id="Path_19" data-name="Path 19" d="M585.977,527.738a9.317,9.317,0,0,1,1.381-.067,9.495,9.495,0,0,1,1.314.123,7.174,7.174,0,0,1,1.106.27,2.5,2.5,0,0,1,.656.3,1.094,1.094,0,0,1,.233.227,1.232,1.232,0,0,1,.124.265,2.956,2.956,0,0,1,.105.424q.048.259.1.646c.036.288.059.531.069.732a2.714,2.714,0,0,1-.013.5.583.583,0,0,1-.113.3.372.372,0,0,1-.249.122,1.263,1.263,0,0,1-.546-.143q-.384-.164-.934-.344a8.414,8.414,0,0,0-1.26-.3,5.368,5.368,0,0,0-1.527-.013,3.625,3.625,0,0,0-1.1.3,2.324,2.324,0,0,0-.741.531,1.716,1.716,0,0,0-.393.721,2.185,2.185,0,0,0-.054.837,1.815,1.815,0,0,0,.488,1.064,3.383,3.383,0,0,0,1.041.715,10.259,10.259,0,0,0,1.417.518q.784.226,1.6.486a15.2,15.2,0,0,1,1.618.62,6.179,6.179,0,0,1,1.46.92,5.081,5.081,0,0,1,1.122,1.371,5.239,5.239,0,0,1,.609,1.97,5.992,5.992,0,0,1-.231,2.732,5.57,5.57,0,0,1-1.293,2.1,6.73,6.73,0,0,1-2.116,1.435,9.664,9.664,0,0,1-2.718.733,9.837,9.837,0,0,1-1.871.068,10.58,10.58,0,0,1-1.559-.2,6.678,6.678,0,0,1-1.154-.347,3.177,3.177,0,0,1-.688-.366,1.132,1.132,0,0,1-.345-.524,5.2,5.2,0,0,1-.213-1.038q-.058-.462-.067-.777a2.262,2.262,0,0,1,.034-.518.561.561,0,0,1,.144-.3.427.427,0,0,1,.25-.114,1.227,1.227,0,0,1,.618.172,10.562,10.562,0,0,0,1.043.421,8.987,8.987,0,0,0,1.488.364,6.787,6.787,0,0,0,1.942.007,4.444,4.444,0,0,0,1.257-.332,2.868,2.868,0,0,0,.9-.6,2.066,2.066,0,0,0,.506-.848,2.5,2.5,0,0,0,.08-1.052,1.81,1.81,0,0,0-.5-1.078,3.548,3.548,0,0,0-1.034-.716,9.612,9.612,0,0,0-1.386-.522q-.77-.229-1.587-.488a13.877,13.877,0,0,1-1.6-.622,6.132,6.132,0,0,1-1.437-.923,5.168,5.168,0,0,1-1.116-1.378,5.429,5.429,0,0,1-.616-2.023,5.5,5.5,0,0,1,.208-2.495,5.034,5.034,0,0,1,1.165-1.913,5.934,5.934,0,0,1,1.923-1.29A9.021,9.021,0,0,1,585.977,527.738Z" transform="translate(-142.746 -71.497)" fill="#4F4538" fill-rule="evenodd"/>
    <text id="S" transform="translate(437.418 470.666)" fill="rgba(0,0,0,0)" font-size="17" font-family="ArialMT, Arial"><tspan x="0" y="0">S</tspan></text>
    <path id="Path_20" data-name="Path 20" d="M604.99,528.5l-.635,8.664,5.332-1.35L605,528.495Zm-.873-3.691q.857-.217,1.371-.323a3.756,3.756,0,0,1,.817-.1.784.784,0,0,1,.468.137,1.434,1.434,0,0,1,.32.383l10.03,15.191a5.2,5.2,0,0,1,.428.773.517.517,0,0,1,0,.487.979.979,0,0,1-.519.332q-.4.14-1.11.319-.741.189-1.161.271a2.989,2.989,0,0,1-.654.073.6.6,0,0,1-.351-.1,1.044,1.044,0,0,1-.223-.268l-2.22-3.457-7.06,1.788-.261,3.976a1.182,1.182,0,0,1-.066.381.638.638,0,0,1-.249.294,2.291,2.291,0,0,1-.568.26c-.252.084-.586.179-1,.285a9.761,9.761,0,0,1-1.057.222.819.819,0,0,1-.575-.079.581.581,0,0,1-.222-.446,4.89,4.89,0,0,1,.012-.869l1.574-18.146a1.5,1.5,0,0,1,.1-.451.744.744,0,0,1,.312-.326,2.982,2.982,0,0,1,.679-.28Q603.377,525,604.118,524.808Z" transform="translate(-143.567 -71.363)" fill="#4F4538" fill-rule="evenodd"/>
    <text id="A" transform="translate(456.673 470.528)" fill="rgba(0,0,0,0)" font-size="20" font-family="ArialMT, Arial"><tspan x="0" y="0">A</tspan></text>
    <path id="Path_21" data-name="Path 21" d="M625.465,529.791l2.057,5.117,2.641-1.062a4.785,4.785,0,0,0,1.222-.677,2.813,2.813,0,0,0,.714-.836,2.327,2.327,0,0,0,.286-1.019,2.7,2.7,0,0,0-.213-1.151,3.067,3.067,0,0,0-.658-1.035,2.3,2.3,0,0,0-.945-.581,3.033,3.033,0,0,0-1.235-.1,6.508,6.508,0,0,0-1.7.474Zm-2.951-7.342,1.878,4.672,2.045-.821a3.8,3.8,0,0,0,1.189-.7,2.357,2.357,0,0,0,.579-.831,2.251,2.251,0,0,0,.158-.952,2.992,2.992,0,0,0-.219-.986,2.9,2.9,0,0,0-.558-.906,1.893,1.893,0,0,0-.788-.515,2.486,2.486,0,0,0-1.018-.1,5.24,5.24,0,0,0-1.417.392Zm-3.6-1.733,4.52-1.817a13.006,13.006,0,0,1,2.914-.848,5.921,5.921,0,0,1,2.27.064,4.01,4.01,0,0,1,1.776.942,4.98,4.98,0,0,1,1.233,1.863,4.728,4.728,0,0,1,.328,1.3,3.989,3.989,0,0,1-.064,1.245,3.913,3.913,0,0,1-.451,1.15,4.315,4.315,0,0,1-.829,1.012,5.121,5.121,0,0,1,1.606-.081,4.294,4.294,0,0,1,1.487.444,4.5,4.5,0,0,1,1.276.982,5.023,5.023,0,0,1,.943,1.542,5.811,5.811,0,0,1,.434,1.844,5.021,5.021,0,0,1-.176,1.67,5.079,5.079,0,0,1-.7,1.476,6.964,6.964,0,0,1-1.14,1.282,9.449,9.449,0,0,1-1.5,1.078,14.368,14.368,0,0,1-1.915.923l-4.783,1.923a1.227,1.227,0,0,1-.881.039,1.2,1.2,0,0,1-.667-.758l-6.3-15.684a1.2,1.2,0,0,1-.042-1.009A1.225,1.225,0,0,1,618.911,520.716Z" transform="translate(-144.3 -71.101)" fill="#4F4538" fill-rule="evenodd"/>
    <text id="B" transform="translate(473.856 463.923)" fill="rgba(0,0,0,0)" font-size="20" font-family="ArialMT, Arial"><tspan x="0" y="0">B</tspan></text>
    <path id="Path_22" data-name="Path 22" d="M638.356,512.233a8.381,8.381,0,0,1,.87-.407,3.075,3.075,0,0,1,.586-.173.684.684,0,0,1,.376.022.415.415,0,0,1,.212.194l8.526,16.206a.414.414,0,0,1,.039.284.682.682,0,0,1-.194.323,3.2,3.2,0,0,1-.475.385,10.207,10.207,0,0,1-1.691.89,3.179,3.179,0,0,1-.594.177.684.684,0,0,1-.376-.022.421.421,0,0,1-.211-.194L636.9,513.711a.42.42,0,0,1-.039-.284.688.688,0,0,1,.2-.326,3.307,3.307,0,0,1,.481-.389A8.038,8.038,0,0,1,638.356,512.233Z" transform="translate(-145.064 -70.842)" fill="#4F4538" fill-rule="evenodd"/>
    <text id="I-3" data-name="I" transform="translate(491.786 454.688)" fill="rgba(0,0,0,0)" font-size="16" font-family="ArialMT, Arial"><tspan x="0" y="0">I</tspan></text>
    <path id="Path_23" data-name="Path 23" d="M658.129,500.006a8.377,8.377,0,0,1,.729-.448,1.728,1.728,0,0,1,.512-.193.618.618,0,0,1,.335.027.5.5,0,0,1,.213.181l9.769,14.435a1.5,1.5,0,0,1,.245.576,1.3,1.3,0,0,1-.014.552,1.261,1.261,0,0,1-.25.486,1.956,1.956,0,0,1-.419.383l-1.391.941a3.4,3.4,0,0,1-.81.421,1.8,1.8,0,0,1-.8.079,3.371,3.371,0,0,1-.935-.271q-.513-.223-1.243-.634l-9.078-4.8q-.8-.436-1.686-.968t-1.666-1.07l-.025.016q.655.861,1.28,1.73t1.263,1.815l5.687,8.4a.469.469,0,0,1,.082.269.619.619,0,0,1-.122.327,2.263,2.263,0,0,1-.382.412,7.2,7.2,0,0,1-.708.533,7.057,7.057,0,0,1-.744.45,2.177,2.177,0,0,1-.519.2.567.567,0,0,1-.337-.016.5.5,0,0,1-.213-.181l-9.769-14.435a1.314,1.314,0,0,1-.25-1.106,1.5,1.5,0,0,1,.64-.858l1.75-1.185a3.993,3.993,0,0,1,.849-.457,1.972,1.972,0,0,1,.758-.124,2.467,2.467,0,0,1,.827.192,7.943,7.943,0,0,1,1.009.5l7.1,3.754q.634.35,1.25.684t1.212.681q.6.347,1.168.684t1.132.683l.013-.009q-.626-.844-1.282-1.774t-1.236-1.787l-5.1-7.534a.439.439,0,0,1-.077-.274.73.73,0,0,1,.13-.341,2,2,0,0,1,.389-.416A8.468,8.468,0,0,1,658.129,500.006Z" transform="translate(-145.473 -70.34)" fill="#4F4538" fill-rule="evenodd"/>
    <text id="N-2" data-name="N" transform="translate(501.375 448.404)" fill="rgba(0,0,0,0)" font-size="22" font-family="ArialMT, Arial"><tspan x="0" y="0">N</tspan></text>
    <path id="Path_24" data-name="Path 24" d="M666.592,493.56a8.489,8.489,0,0,1,.744-.607,3.242,3.242,0,0,1,.527-.311.63.63,0,0,1,.364-.065.464.464,0,0,1,.257.152L674,498.874l-1.279-9.928a1.018,1.018,0,0,1,.13-.821,2.848,2.848,0,0,1,.387-.488q.259-.273.693-.663a8.736,8.736,0,0,1,.766-.627,2.988,2.988,0,0,1,.548-.321.68.68,0,0,1,.375-.064.437.437,0,0,1,.247.141,1.174,1.174,0,0,1,.25.48q.079.291.191.975L677,496.3l10.172,2.651a7.014,7.014,0,0,1,.841.342,1.085,1.085,0,0,1,.266.195.524.524,0,0,1,.133.272.593.593,0,0,1-.094.366,2.91,2.91,0,0,1-.389.52,12.4,12.4,0,0,1-1.82,1.595,1.389,1.389,0,0,1-.608.243,1.059,1.059,0,0,1-.458-.073l-10.507-2.934,6.146,6.848a.464.464,0,0,1,.124.272.675.675,0,0,1-.1.361,2.723,2.723,0,0,1-.361.495,10.165,10.165,0,0,1-1.422,1.277,2.689,2.689,0,0,1-.537.31.723.723,0,0,1-.374.065.436.436,0,0,1-.263-.147l-12.2-13.6a.445.445,0,0,1-.118-.277.681.681,0,0,1,.11-.36,3.173,3.173,0,0,1,.371-.495A8.512,8.512,0,0,1,666.592,493.56Z" transform="translate(-146.232 -69.792)" fill="#4F4538" fill-rule="evenodd"/>
    <text id="K-4" data-name="K" transform="translate(519.2 434.322)" fill="rgba(0,0,0,0)" font-size="21" font-family="Corbel-Bold, Corbel" font-weight="700"><tspan x="0" y="0">K</tspan></text>
    <path id="Path_25" data-name="Path 25" d="M681.076,480.075a8.284,8.284,0,0,1,.68-.678,3.153,3.153,0,0,1,.492-.362.69.69,0,0,1,.362-.106.417.417,0,0,1,.265.109L696.4,491.387a.411.411,0,0,1,.133.254.68.68,0,0,1-.073.369,3.218,3.218,0,0,1-.316.524,8.438,8.438,0,0,1-.614.739,8.3,8.3,0,0,1-.675.672,3.126,3.126,0,0,1-.5.367.684.684,0,0,1-.361.107.412.412,0,0,1-.265-.11l-13.524-12.348a.422.422,0,0,1-.134-.254.7.7,0,0,1,.079-.375,3.34,3.34,0,0,1,.321-.528A7.95,7.95,0,0,1,681.076,480.075Z" transform="translate(-146.831 -69.505)" fill="#4F4538" fill-rule="evenodd"/>
    <text id="I-4" data-name="I" transform="translate(533.238 415.592)" fill="rgba(0,0,0,0)" font-size="8" font-family="ArialMT, Arial"><tspan x="0" y="0">I</tspan></text>
  </g>
</svg>
