<svg xmlns="http://www.w3.org/2000/svg" width="479.263" height="385.569" viewBox="0 0 479.263 385.569">
  <path id="Path_43" data-name="Path 43" d="M684.05,180.152a112.428,112.428,0,0,1,46.106-20.577c4.38-.855,9.591-1.192,12.625,2.085,3.783,4.089,1.552,10.663-1.087,15.566a176.863,176.863,0,0,1-22.958,33c9.73,5.425,20.848,13.255,20.044,24.368-.7,9.664-11.012,16.318-20.7,16.5s-18.758-4.368-27.375-8.8l-10.014,11.261a157.057,157.057,0,0,1,65.356,30.706c1.774-12.491,5.128-25.1,12.557-35.3s19.553-17.62,32.142-16.766,24.51,11.66,24.174,24.269c12.137-9.285,28.723-17.637,41.951-9.993,10.716,6.2,13.9,20.553,12.048,32.794-4.218,27.845-27.255,48.453-48.826,66.558l-37.345,31.344c-2.458,2.065-5.712,4.255-8.619,2.891-2.264-1.063-3.111-3.788-3.723-6.214l-11.491-45.62c-2.029,19.717-1.63,40.2,5.792,58.58s22.886,34.365,42.319,38.275,41.934-7.038,47.389-26.092c1.3-4.537,9.121-2.867,10.34,1.694s-1.743,9.124-4.838,12.686c-11.658,13.43-28.362,23.338-46.146,23.416-25.474.115-47.542-20.009-57.534-43.441s-10.359-49.693-10.233-75.168c.084-16.707-11.694-31.661-26.113-40.109s-31.233-11.6-47.668-14.616c29.763,37.146,40.244,88.946,27.262,134.741s-49.093,84.386-93.924,100.385-97.214,8.981-136.255-18.252c-15.486,16.085-30.991,32.192-45.189,49.425-4.52,5.486-9.234,11.33-15.884,13.849s-15.757.048-17.7-6.791c-1.8-6.326,3.045-12.434,7.536-17.233l51.894-55.5c-35.325-35.025-51.36-88.4-41.185-137.1s46.238-91.188,92.631-109.141,101.669-10.808,141.972,18.353a29.177,29.177,0,0,1,2.038-28.075c-37.148-29.482-89.875-38.023-134.429-21.778-4.421,1.613-11.355,2.052-11.868-2.628-.354-3.208,3.163-5.337,6.171-6.507,44.74-17.4,97.93-11.144,137.415,16.153,9.845,6.8,22.655,7.011,34.625,6.968,10.432-.035,23.013-1.342,27.605-10.7a89.192,89.192,0,0,1-20-.252c-1.479-.184-3.1-.49-4.018-1.664C679.053,185.3,681.618,181.989,684.05,180.152Zm133.826,91.577a40.716,40.716,0,0,1-13.428,31.241c-2.41,2.146-5.62,4.1-8.7,3.122-4.048-1.283-5.023-6.569-4.649-10.8a42.933,42.933,0,0,1,8.887-22.509c2.7-3.45,6.077-6.791,6.63-11.136a14.276,14.276,0,0,0-2.18-8.658c-4.15-7.323-12.9-12.707-20.981-10.345a22.426,22.426,0,0,0-7.706,4.432,52.19,52.19,0,0,0-17.723,49.915c2.062,9.968,7.028,19.051,10.735,28.532,5.232,13.38,7.956,27.582,10.66,41.692,9.564-11.446,21.636-20.473,33.447-29.584s23.628-18.56,32.443-30.592,14.431-27.111,12.233-41.865a15.519,15.519,0,0,0-2.3-6.716c-2.214-3.163-6.251-4.681-10.109-4.641s-7.572,1.449-11.03,3.163a61,61,0,0,0-11.994,7.844C819.969,266.623,817.788,268.932,817.876,271.729ZM561,392.5c48.528-14.2,94.446-40.413,126.49-79.518a12.612,12.612,0,0,0,2.6-4.256,6.612,6.612,0,0,0-1.839-6.592c-37.141,33.943-80.383,62.295-128.73,76.251s-102.153,12.55-147.107-10.047c-2.018,4.1-.67,9.231,2.2,12.775s7.025,5.8,11.154,7.747c41.7,19.678,90.974,16.583,135.226,3.632ZM439.9,418.791c29.68,11.817,63.173,10.118,94.325,3.041,59.045-13.408,113.253-45.553,155.573-88.855,2.36-2.414,4.741-4.95,5.943-8.107s.937-7.106-1.512-9.427c-38.995,46.9-95.767,77.589-155.617,89.334-41.231,8.086-86.112,7.04-122.586-13.815-.591,6.539,2.531,13.022,7.156,17.685S433.8,416.364,439.9,418.791Zm-18.1-53.038c43.443,19.191,93.95,19.11,139.39,5.3s86.141-40.582,121.254-72.566a6.363,6.363,0,0,0-.685-9.524c-36.184,32.379-79.648,57.048-126.736,68.881s-97.806,10.5-143.346-6.335c-1.366,2.964-.236,6.6,1.938,9.035S418.814,364.438,421.8,365.753Zm107.025-9.393q8.806-1.672,17.612-3.34c-14.464-17.387-28.022-35.605-39.194-55.266s-19.95-40.815-24.479-62.975a1.563,1.563,0,0,0-.5-1.028,1.579,1.579,0,0,0-1.509.121,23.1,23.1,0,0,0-6.09,3.51,7.807,7.807,0,0,0-2.875,6.18c1.589,20.788,8.266,40.972,17.637,59.6s21.408,35.788,34.171,52.272C524.742,356.912,526.988,356.707,528.822,356.36Zm20.992-44.295c-.473.959.209,2.062.856,2.913q6.39,8.387,12.783,16.769c17.2-33.342,30.236-70.1,28.309-107.564-.115-2.28-.422-4.821-2.194-6.26a8.431,8.431,0,0,0-3.94-1.419q-5.343-.958-10.682-1.922a1.753,1.753,0,0,0-.891-.006c-.693.247-.781,1.173-.755,1.909,1.217,33.125-8.836,65.844-23.484,95.582Zm5.516,38.8,13.4-3.855a344.342,344.342,0,0,1-53.407-80.842c-6.147-12.968-11.473-26.31-16.723-39.667-.48-1.221-2.3-.8-3.458-.176q-2.726,1.482-5.45,2.967a2.318,2.318,0,0,0-1.52,2.905,2.6,2.6,0,0,0,.1.265c8.873,43.975,34.261,82.906,63.153,117.227a2.936,2.936,0,0,0,3.908,1.181Zm76.593,128.371c4-1.337,6.9-4.832,10.721-6.623C609.793,465.2,580.82,446,554.82,424.592c-1-.828-2.492-.537-3.747-.2q-8.5,2.25-16.995,4.5c16.595,16.39,34.564,31.788,55.4,42.262a77.344,77.344,0,0,0,20.186,7.313,105.925,105.925,0,0,0,14.1,1.369c2.743.14,5.559.269,8.161-.6Zm-130.811-120.6a4.819,4.819,0,0,0,2.411.228q7.206-.564,14.409-1.122c-12.93-16.638-24.922-34.107-34.25-53.007s-15.961-39.279-17.816-60.27q-5.171,4.477-10.34,8.948a5.8,5.8,0,0,0-1.777,2.121,5.711,5.711,0,0,0-.086,2.95c5.432,36.122,24.61,68.659,45.746,98.453A4.77,4.77,0,0,0,501.112,358.637Zm33.34-68.7L545.12,306.93c13.664-28.585,23.2-59.893,21.689-91.538a1.49,1.49,0,0,0-1.767-1.77l-11.256-.3c-1.054-.03-2.461.231-2.561,1.283a233.358,233.358,0,0,1-18.01,70.317c-.71,1.65.281,3.5,1.237,5.021Zm71.36,5.442a20.834,20.834,0,0,0,1.683-5,213.271,213.271,0,0,0,5.752-58.967c-.086-2.058-.258-4.265-1.549-5.871-1.151-1.438-2.988-2.119-4.728-2.733l-7.86-2.773c-.473-.167-1.24-.129-1.2.372,1.672,20.111-1.055,40.44-6.523,59.867s-13.637,38.005-22.913,55.926L602.285,299.9a22.087,22.087,0,0,0,3.527-4.519ZM549.884,451.4q-9.6-8.085-18.535-16.906c-.667-.655-1.761-.006-2.443.631a281.705,281.705,0,0,1-55.682,40.346c4.044,3.382,8.435,6.917,13.688,7.38,3.3.293,6.569-.677,9.707-1.731A165.894,165.894,0,0,0,549.884,451.4Zm108.52,7.231a241.96,241.96,0,0,1-79.347-41.755c-1.624-1.288-3.987-.614-5.924.115q-6.2,2.332-12.4,4.665a257.772,257.772,0,0,0,35.718,25.556c15.362,9.118,31.884,16.7,49.46,19.883a5.949,5.949,0,0,0,2.485.083,6.069,6.069,0,0,0,2.5-1.635Q654.655,462.085,658.4,458.634Zm5.876-6.667q4.047-4.566,7.632-9.519A218.5,218.5,0,0,1,603.158,405.8c-1.164-.922-2.859-.325-4.2.3q-7.542,3.516-15.08,7.025a233.517,233.517,0,0,0,76.466,39.884A2.972,2.972,0,0,0,664.28,451.967ZM440.295,277.41a312.479,312.479,0,0,0,36.39,78.759,6.653,6.653,0,0,0,2.171,2.386,6.73,6.73,0,0,0,3.27.559l11.55.026c-20.868-29.552-39.492-61.839-45.492-97.517a33.233,33.233,0,0,0-6.287,6.866A11.2,11.2,0,0,0,440.295,277.41Zm257.322,56.543c-5.347,3.434-6.563,10.566-7.586,16.836-3.532,21.633-10.64,42.547-19.1,62.768-.453,1.082.9,2,2,2.407l10.845,4.007a1.287,1.287,0,0,0,1.79-.327,1.3,1.3,0,0,0,.2-.478,145.479,145.479,0,0,0,11.852-85.215ZM516.872,253.172c-.546,1.63.236,3.371,1,4.907q5.3,10.658,10.587,21.314a225.362,225.362,0,0,0,16.174-63.454c.086-.824.078-1.834-.637-2.254l-14.425,1.9c-1.406.192-3.132.655-3.4,2.049A274.635,274.635,0,0,1,516.872,253.172ZM618.944,395.755q-5.524,3.089-11.049,6.171a211.265,211.265,0,0,0,64.77,34.631,2.772,2.772,0,0,0,4.14-1.264q2.44-4.064,4.883-8.126c.321-.537.539-1.419-.051-1.63a248.949,248.949,0,0,1-58.594-30.358C621.849,394.339,620.219,395.043,618.944,395.755Zm-65.265,60.91a172.2,172.2,0,0,1-58.892,31.788c12.891,3.589,26.83,1.834,39.406-2.74s23.99-11.837,35.013-19.421l-11.713-8.827C556.369,456.622,554.763,455.765,553.679,456.665Zm19.9,14.05a128.429,128.429,0,0,1-48.616,24.4c-1.619.413-3.243.8-4.869,1.181l-2.14.5c12.719,3.892,26.521,3.629,39.4.288s24.852-9.664,35.561-17.551q-7.928-4.228-15.859-8.451c-1.088-.582-2.505-1.143-3.469-.367Zm95.891-109.69a6.7,6.7,0,0,0-2.289,3.036,301.155,301.155,0,0,1-14.308,41.4c-.309.721.529,1.385,1.234,1.725l8.531,4.171a2,2,0,0,0,1.877.223,1.968,1.968,0,0,0,.66-.953,307.459,307.459,0,0,0,19.14-62.942Q676.9,354.358,669.468,361.024ZM634.919,238.287c-1.63-2.529-4.363-4.095-7.015-5.514q-4.128-2.21-8.332-4.268a217.838,217.838,0,0,1-4.5,57.58q9.652-10.409,19.3-20.818a9.626,9.626,0,0,0,2.132-2.988,9.528,9.528,0,0,0,.439-3.2q.114-5.655-.006-11.31C636.872,244.5,636.687,241.045,634.919,238.287ZM451.4,322.672q-2.79-6.015-5.583-12.034c-8.3,8.662-16.766,17.465-27.29,23.217a18.92,18.92,0,0,0-5.116,3.444c-1.393,1.525-2.161,3.843-1.246,5.7.88,1.78,2.947,2.569,4.828,3.2l9.261,3.122a3.542,3.542,0,0,0,1.9.269,3.5,3.5,0,0,0,1.527-1,217.48,217.48,0,0,0,20.634-22.461C451.116,325.129,451.945,323.83,451.4,322.672Zm-8.924-19.127a3.947,3.947,0,0,0-.3-1.756q-3.813-11.427-7.629-22.857a144.443,144.443,0,0,0-20.433,50.188A108.007,108.007,0,0,0,441.472,305.4,3.869,3.869,0,0,0,442.481,303.545Zm5.795,146.208a165.607,165.607,0,0,0,28.469-16.18,117.331,117.331,0,0,1-30.682-5.656c-4.783-1.562-9.747,1.428-13.892,4.285a150.784,150.784,0,0,0,11.47,16.271,3.148,3.148,0,0,0,4.635,1.283Zm278.719-219.61a44.487,44.487,0,0,0-14.616-10.8,1.3,1.3,0,0,0-1.817.266,1.207,1.207,0,0,0-.089.137q-5.818,6.532-11.573,13.11a1.4,1.4,0,0,0-.445.841c-.008.523.531.862,1,1.1,4.346,2.137,8.764,4.3,13.537,5.133s10.029.161,13.789-2.894a4.754,4.754,0,0,0,2.008-3.186C728.871,232.441,727.939,231.2,726.994,230.143Zm-87.6,153.172c-3.471,2.237-5,6.451-6.305,10.364a1.494,1.494,0,0,0-.1.959,1.478,1.478,0,0,0,.7.679l11.226,6.859a1.543,1.543,0,0,0,2.719-.767,330.48,330.48,0,0,0,11.407-32.1q-9.487,7.459-19.647,14.007ZM455.408,331.064c-.48-.288-1.031.2-1.372.633a187.075,187.075,0,0,1-18.476,20.225,134.993,134.993,0,0,0,16.429,3.8,2.9,2.9,0,0,0,3.528-1.3l6.555-8.244a1.706,1.706,0,0,0,.268-2.378q-3.277-6.129-6.553-12.259A1.127,1.127,0,0,0,455.408,331.064ZM597.924,483.337a101.11,101.11,0,0,1-31.3,17.772c9.43-.379,18.7-2.492,27.823-4.929,7.956-2.123,16.3-4.786,21.663-11.036a32.158,32.158,0,0,1-10.458-1.608C603.085,482.693,600,481.6,597.924,483.337Zm55.131-182.244,2.013-20.439q-5.963,6.14-11.929,12.28a11.207,11.207,0,0,0-3.834,7.729q-1.342,7.4-2.683,14.791,6.844-4.517,13.558-9.234a5.419,5.419,0,0,0,2.875-5.125Zm18.6-12.252a3.791,3.791,0,0,0,.894-2.875q.121-4.848.245-9.691c.08-3.27-2.346-5.994-4.62-8.345a.83.83,0,0,0-1.463-.008l-2.843,2.964a5.992,5.992,0,0,0-2.086,4.869q-.9,11.58-1.807,23.164,5.838-5.035,11.678-10.077ZM657.4,238.661c.242.287.558.6.929.533a1.081,1.081,0,0,0,.55-.384q4.889-5.247,9.777-10.5c.384-.412.76-1.109.322-1.463q-6.806-5.509-13.6-11.014a1.669,1.669,0,0,0-1.323-.528,1.556,1.556,0,0,0-.882.832,16.153,16.153,0,0,0-1.463,11.83A26.725,26.725,0,0,0,657.4,238.661ZM505.326,222.283a1.15,1.15,0,0,0-.784,1.839q3.712,10.94,8.021,21.67,3.982-13.606,6.979-27.474c-.263-.343-.794-.258-1.208-.14Q511.78,220.063,505.326,222.283Zm123.937,95.78q1.511-6.8,3.022-13.591-12.74,13.738-25.477,27.477,10.3-4.84,20.1-10.639a3.861,3.861,0,0,0,2.351-3.246ZM516.224,431.853a8.947,8.947,0,0,0-2.327.708,9.676,9.676,0,0,0-2.7,2.365q-10.111,11.334-20.785,22.142c.309.3.827.06,1.183-.192a358.445,358.445,0,0,0,32.664-26.1A62.317,62.317,0,0,0,516.224,431.853ZM799.667,297.308a2.47,2.47,0,0,0,1.476-.913,39.09,39.09,0,0,0,5.493-8.162c1.75-3.141,3.522-6.344,4.265-9.86a3.877,3.877,0,0,0,.03-2,1.546,1.546,0,0,0-1.487-1.136,2.282,2.282,0,0,0-1.4.979,54.966,54.966,0,0,0-9.7,17.062,4.905,4.905,0,0,0-.389,2.475A1.788,1.788,0,0,0,799.667,297.308ZM675.932,218.732a1.054,1.054,0,0,0,1.747-.211l7.747-8.085a2.147,2.147,0,0,0-1.388-.516c-5.887-.7-11.851-1.409-17.717-.561a1.762,1.762,0,0,0-1.337.634Zm-32.712,36.481c.3.169.64-.1.87-.349q2.606-2.83,5.215-5.655c.451-.491-.1-1.246-.617-1.667l-4.026-3.3c-.372-.306-.958-.6-1.28-.249a.989.989,0,0,0-.14.767A54.164,54.164,0,0,1,643.221,255.213Zm-180,194.728c-.239-.18-.576-.051-.841.083q-5.545,2.787-11.084,5.575c-.288.145-.617.363-.6.682a.835.835,0,0,0,.287.489l1.877,1.964a1.078,1.078,0,0,0,1.9-.04Zm-1.61-92.632q3.761.423,7.521.842.9.1,1.8.2a80.937,80.937,0,0,0-4.427-7.057A54.782,54.782,0,0,0,461.615,357.309Zm-36.277,61.2c-.4.1-.3.707-.1,1.074l2.129,4.045a2.876,2.876,0,0,0,.754,1.028,2.654,2.654,0,0,0,1.868.306,14.646,14.646,0,0,0,4.805-1.369A55.4,55.4,0,0,1,425.338,418.511Z" transform="translate(-390.153 -158.995)" fill="#4F4538" fill-rule="evenodd"/>
</svg>
